<svg width="1200" height="600" viewBox="0 0 1200 600" fill="none" xmlns="http://www.w3.org/2000/svg">
  <defs>
    <linearGradient id="forum-sky" x1="0" y1="0" x2="0" y2="1">
      <stop offset="0%" stop-color="#ECFDF5"/>
      <stop offset="40%" stop-color="#FEF9C3"/>
      <stop offset="100%" stop-color="#FDE68A"/>
    </linearGradient>
    <linearGradient id="forum-field-1" x1="0" y1="0" x2="1" y2="0">
      <stop offset="0%" stop-color="#4ADE80"/>
      <stop offset="100%" stop-color="#16A34A"/>
    </linearGradient>
    <linearGradient id="forum-field-2" x1="0" y1="0" x2="1" y2="0">
      <stop offset="0%" stop-color="#A7F3D0"/>
      <stop offset="100%" stop-color="#34D399"/>
    </linearGradient>
    <linearGradient id="forum-field-3" x1="0" y1="0" x2="1" y2="0">
      <stop offset="0%" stop-color="#FCD34D"/>
      <stop offset="100%" stop-color="#FDBA74"/>
    </linearGradient>
  </defs>
  <rect width="1200" height="600" rx="48" fill="url(#forum-sky)"/>
  <circle cx="980" cy="140" r="80" fill="#FCD34D" opacity="0.5"/>
  <g opacity="0.25" stroke="#22C55E" stroke-width="8">
    <path d="M80 140C120 120 200 90 280 140" stroke-linecap="round"/>
    <path d="M220 100C260 80 320 70 380 100" stroke-linecap="round"/>
    <path d="M150 70C210 40 250 40 320 70" stroke-linecap="round"/>
  </g>
  <path d="M0 360C120 320 200 320 320 360C440 400 520 400 640 360C760 320 840 320 960 360C1080 400 1140 400 1200 370V600H0V360Z" fill="url(#forum-field-1)" opacity="0.9"/>
  <path d="M0 430C100 390 180 390 300 430C420 470 520 470 640 430C760 390 860 390 980 430C1060 456 1120 456 1200 440V600H0V430Z" fill="url(#forum-field-2)" opacity="0.85"/>
  <path d="M0 500C120 460 220 460 340 500C460 540 600 540 720 500C840 460 960 460 1080 500C1150 524 1180 524 1200 512V600H0V500Z" fill="url(#forum-field-3)" opacity="0.8"/>
  <g opacity="0.25" stroke="white" stroke-width="10" stroke-linecap="round">
    <path d="M60 520C150 490 210 490 300 520C390 550 450 550 540 520C630 490 690 490 780 520C870 550 930 550 1020 520C1110 490 1170 490 1260 520"/>
    <path d="M0 450C80 420 140 420 220 450C300 480 360 480 440 450C520 420 580 420 660 450C740 480 800 480 880 450C960 420 1020 420 1100 450C1180 480 1240 480 1320 450"/>
  </g>
</svg>

