<svg width="420" height="320" viewBox="0 0 420 320" fill="none" xmlns="http://www.w3.org/2000/svg">
  <defs>
    <linearGradient id="stats-bg" x1="0" y1="0" x2="1" y2="1">
      <stop offset="0%" stop-color="#ECFDF5"/>
      <stop offset="100%" stop-color="#FEFCE8"/>
    </linearGradient>
  </defs>
  <rect width="420" height="320" rx="28" fill="url(#stats-bg)"/>
  <rect x="40" y="56" width="140" height="72" rx="18" fill="white" opacity="0.95"/>
  <rect x="60" y="80" width="80" height="12" rx="6" fill="#A7F3D0"/>
  <rect x="60" y="104" width="48" height="12" rx="6" fill="#34D399"/>
  <rect x="230" y="80" width="150" height="180" rx="24" fill="white" opacity="0.95"/>
  <path d="M250 220L280 170L310 194L350 132" stroke="#22C55E" stroke-width="8" stroke-linecap="round" stroke-linejoin="round"/>
  <circle cx="280" cy="170" r="10" fill="#F97316"/>
  <circle cx="310" cy="194" r="10" fill="#FCD34D"/>
  <circle cx="350" cy="132" r="10" fill="#34D399"/>
  <rect x="250" y="230" width="110" height="16" rx="8" fill="#DCFCE7"/>
  <rect x="52" y="174" width="170" height="110" rx="24" fill="white" opacity="0.95"/>
  <rect x="72" y="206" width="130" height="18" rx="9" fill="#FDE68A"/>
  <rect x="72" y="236" width="80" height="18" rx="9" fill="#FDBA74"/>
  <rect x="72" y="266" width="110" height="10" rx="5" fill="#FCE7F3"/>
</svg>

