<svg width="560" height="420" viewBox="0 0 560 420" fill="none" xmlns="http://www.w3.org/2000/svg">
  <defs>
    <linearGradient id="hero-bg" x1="0" y1="0" x2="1" y2="1">
      <stop offset="0%" stop-color="#ECFDF5"/>
      <stop offset="100%" stop-color="#FEF9C3"/>
    </linearGradient>
    <linearGradient id="hero-hill" x1="0" y1="0" x2="1" y2="0">
      <stop offset="0%" stop-color="#4ADE80"/>
      <stop offset="100%" stop-color="#22C55E"/>
    </linearGradient>
    <linearGradient id="hero-hill-2" x1="0" y1="0" x2="1" y2="0">
      <stop offset="0%" stop-color="#86EFAC"/>
      <stop offset="100%" stop-color="#34D399"/>
    </linearGradient>
    <linearGradient id="hero-sun" x1="0" y1="0" x2="0" y2="1">
      <stop offset="0%" stop-color="#FCD34D"/>
      <stop offset="100%" stop-color="#F59E0B"/>
    </linearGradient>
  </defs>
  <rect width="560" height="420" rx="32" fill="url(#hero-bg)"/>
  <circle cx="430" cy="80" r="55" fill="url(#hero-sun)" opacity="0.9"/>
  <g opacity="0.4">
    <circle cx="120" cy="90" r="18" stroke="#34D399" stroke-width="2"/>
    <circle cx="90" cy="130" r="10" stroke="#A7F3D0" stroke-width="2"/>
    <circle cx="160" cy="140" r="8" stroke="#22C55E" stroke-width="2"/>
  </g>
  <path d="M0 250C80 210 120 210 200 250C280 290 320 290 400 250C480 210 520 210 560 250V420H0V250Z" fill="url(#hero-hill)"/>
  <path d="M0 300C80 260 140 260 220 300C300 340 360 340 440 300C500 270 540 270 560 280V420H0V300Z" fill="url(#hero-hill-2)"/>
  <path d="M40 320C90 300 130 300 180 320C230 340 270 340 320 320C370 300 410 300 460 320" stroke="white" stroke-width="4" stroke-linecap="round" opacity="0.4"/>
  <path d="M60 350C100 335 130 335 170 350C210 365 250 365 290 350C330 335 360 335 400 350" stroke="white" stroke-width="4" stroke-linecap="round" opacity="0.4"/>
  <g transform="translate(90 210)">
    <rect x="0" y="0" width="140" height="80" rx="18" fill="white" opacity="0.9"/>
    <rect x="16" y="24" width="108" height="12" rx="6" fill="#BBF7D0"/>
    <rect x="16" y="48" width="64" height="12" rx="6" fill="#86EFAC"/>
    <circle cx="46" cy="24" r="6" fill="#10B981"/>
  </g>
  <g transform="translate(330 230)">
    <rect x="0" y="0" width="150" height="100" rx="20" fill="white" opacity="0.95"/>
    <rect x="20" y="24" width="72" height="12" rx="6" fill="#FDE68A"/>
    <rect x="20" y="48" width="100" height="12" rx="6" fill="#FCD34D"/>
    <rect x="20" y="72" width="60" height="12" rx="6" fill="#FDBA74"/>
    <circle cx="112" cy="36" r="10" fill="#34D399" opacity="0.8"/>
  </g>
</svg>

