<svg width="360" height="260" viewBox="0 0 360 260" fill="none" xmlns="http://www.w3.org/2000/svg">
  <defs>
    <linearGradient id="cta-bg" x1="0" y1="0" x2="1" y2="1">
      <stop offset="0%" stop-color="#ECFCCB"/>
      <stop offset="100%" stop-color="#D1FAE5"/>
    </linearGradient>
    <linearGradient id="cta-hand-left" x1="0" y1="0" x2="1" y2="1">
      <stop offset="0%" stop-color="#34D399"/>
      <stop offset="100%" stop-color="#059669"/>
    </linearGradient>
    <linearGradient id="cta-hand-right" x1="0" y1="0" x2="1" y2="1">
      <stop offset="0%" stop-color="#FCD34D"/>
      <stop offset="100%" stop-color="#F97316"/>
    </linearGradient>
  </defs>
  <rect width="360" height="260" rx="32" fill="url(#cta-bg)"/>
  <path d="M60 84C60 74.0589 68.0589 66 78 66H160C169.941 66 178 74.0589 178 84V112C178 121.941 169.941 130 160 130H78C68.0589 130 60 121.941 60 112V84Z" fill="white" opacity="0.9"/>
  <path d="M182 180C182 170.059 190.059 162 200 162H282C291.941 162 300 170.059 300 180V208C300 217.941 291.941 226 282 226H200C190.059 226 182 217.941 182 208V180Z" fill="white" opacity="0.9"/>
  <path d="M100 96H138" stroke="#A7F3D0" stroke-width="8" stroke-linecap="round"/>
  <path d="M210 192H248" stroke="#FED7AA" stroke-width="8" stroke-linecap="round"/>
  <g>
    <path d="M132 160C132 151.163 139.163 144 148 144H190C198.837 144 206 151.163 206 160V178H132V160Z" fill="url(#cta-hand-left)"/>
    <path d="M228 160C228 151.163 220.837 144 212 144H170C161.163 144 154 151.163 154 160V178H228V160Z" fill="url(#cta-hand-right)"/>
    <rect x="132" y="178" width="96" height="32" rx="16" fill="#0EA5E9" opacity="0.15"/>
    <rect x="146" y="184" width="68" height="12" rx="6" fill="#0EA5E9" opacity="0.5"/>
    <rect x="146" y="202" width="92" height="10" rx="5" fill="#0EA5E9" opacity="0.3"/>
  </g>
  <circle cx="100" cy="188" r="14" fill="#34D399" opacity="0.55"/>
  <circle cx="270" cy="90" r="12" fill="#FCD34D" opacity="0.55"/>
  <circle cx="310" cy="60" r="8" fill="#FDBA74" opacity="0.55"/>
  <circle cx="66" cy="60" r="8" fill="#86EFAC" opacity="0.55"/>
</svg>

